<svg xmlns="http://www.w3.org/2000/svg" viewBox="0 0 32 32" fill="none">
  <rect width="32" height="32" rx="6" fill="#FFFFFF"/>
  <g transform="translate(5 5)">
    <path
      d="M18.9187 12.7399C18.4784 12.2695 17.869 12.6125 17.6675 12.9647C17.1623 13.6737 16.2911 14.2066 15.4245 14.2854C15.7999 13.493 15.9343 12.8975 15.8578 12.5708C15.6701 11.7899 14.4328 11.9683 14.3123 12.7816C14.1918 13.5949 13.6705 14.633 13.1283 14.9156C12.2733 15.3582 11.6245 15.671 10.9711 16.3337C10.846 14.9828 10.8135 14.0908 12.0231 12.9392C12.8016 12.1954 13.6288 11.345 14.0876 11.0855C14.4398 10.8909 14.9449 10.9025 15.4292 10.8561C16.8264 10.7287 17.7625 10.161 18.3742 9.30831C18.7495 8.74294 18.4529 8.0988 17.8853 8.04087C17.2828 7.97599 17.0534 8.41623 16.6572 8.81246C16.2633 9.20868 15.9158 9.35233 15.2206 9.34538C15.8277 8.00611 15.9575 6.88465 15.8949 6.19184C15.8138 5.31135 14.6136 5.35769 14.5186 6.17099C14.1942 8.32123 13.2696 9.91538 10.9039 11.6972C11.0035 10.6661 11.3766 10.015 11.884 8.73368C12.6603 6.73867 13.0657 5.29513 12.9962 3.63842C12.9615 2.86683 11.5504 2.69305 11.4901 3.68708C11.4276 4.8155 11.2654 6.12233 10.7023 7.46623C9.93305 6.81514 9.28427 5.8744 9.16842 4.7483C9.0711 3.79598 7.78281 3.75659 7.80598 4.78537C7.85232 6.78038 9.27501 7.98294 9.75464 8.46953C10.3478 9.07892 10.0767 9.83197 9.79867 10.6429C9.28891 12.1884 9.24952 13.3122 9.27269 14.3526C8.56366 13.7525 7.89866 13.0226 7.185 12.1792C7.62756 11.0878 8.28561 9.73929 7.9983 8.53904C7.76427 7.72575 6.56634 7.82075 6.5872 8.65489C6.60342 9.33843 6.58024 10.1309 6.0589 10.8353C5.40317 10.1193 5.24561 9.34307 5.15292 7.93428C5.08341 7.13952 3.73951 6.91245 3.6839 7.92733C3.61438 9.53538 4.39987 11.4632 6.045 13.0689C5.095 13.1964 4.19365 12.8488 3.32243 12.1097C2.49524 11.4586 1.85572 12.6287 2.30524 13.1222C3.54719 14.3827 4.78914 14.5565 6.90232 14.5055C8.37569 15.4903 9.25009 16.72 9.5319 18.3238C9.75464 19.1551 11.1469 19.331 11.4305 18.3238C11.714 17.3167 12.4557 16.6136 14.5973 15.9745C16.4579 15.7822 17.7995 15.0037 18.738 13.778C19.0206 13.4049 19.2315 13.0342 18.9187 12.7399Z"
      fill="#111111"
    />
  </g>
</svg>
